<?xml version="1.0" encoding="UTF-8"?>
<svg id="Layer_2" data-name="Layer 2" xmlns="http://www.w3.org/2000/svg" viewBox="0 0 55.53 90">
  <defs>
    <style>
      .cls-1 {
        fill: #ffb000;
      }

      .cls-2 {
        fill: #4a5ad1;
      }
    </style>
  </defs>
  <g id="Layer_1-2" data-name="Layer 1">
    <g>
      <path class="cls-2" d="M55.53,16.51v62.18c0,6.22-5.09,11.31-11.31,11.31h-27.64c-6.22,0-11.31-5.09-11.31-11.31v-34.03c0-5.11,4.34-9.04,9.45-8.75,1.09.06,2.21.03,3.34-.09,9.18-1.01,16.54-8.51,17.39-17.7.1-1.11.11-2.21.04-3.28-.37-5.17,3.55-9.64,8.74-9.64h0c6.22,0,11.31,5.09,11.31,11.31Z"/>
      <path class="cls-1" d="M29.25,16.62c-.82,6.38-5.87,11.57-12.22,12.56-4.64.72-8.96-.75-12.08-3.53C1.46,22.57-.55,17.84.13,12.7.97,6.31,6.04,1.14,12.41.17c5.02-.76,9.68,1.05,12.83,4.32,2.97,3.07,4.62,7.41,4.01,12.13Z"/>
    </g>
  </g>
</svg>